<svg width="330" height="211" viewBox="0 0 330 211" fill="none" xmlns="http://www.w3.org/2000/svg">
<path d="M54.3105 27.627H40.332V18.2637C40.332 15.541 40.1771 13.8477 39.8672 13.1836C39.5794 12.4974 38.9264 12.1543 37.9082 12.1543C36.7572 12.1543 36.0267 12.5638 35.7168 13.3828C35.4069 14.2018 35.252 15.9727 35.252 18.6953V43.6641C35.252 46.276 35.4069 47.9805 35.7168 48.7773C36.0267 49.5742 36.724 49.9727 37.8086 49.9727C38.849 49.9727 39.5241 49.5742 39.834 48.7773C40.166 47.9805 40.332 46.11 40.332 43.166V36.4258H54.3105V38.5176C54.3105 44.0736 53.9121 48.0137 53.1152 50.3379C52.3405 52.6621 50.6029 54.6986 47.9023 56.4473C45.224 58.196 41.9147 59.0703 37.9746 59.0703C33.8796 59.0703 30.5039 58.3288 27.8477 56.8457C25.1914 55.3626 23.4316 53.3151 22.5684 50.7031C21.7051 48.069 21.2734 44.1178 21.2734 38.8496V23.1445C21.2734 19.2708 21.4062 16.3711 21.6719 14.4453C21.9375 12.4974 22.7233 10.627 24.0293 8.83398C25.3574 7.04102 27.1836 5.63542 29.5078 4.61719C31.8542 3.57682 34.5436 3.05664 37.5762 3.05664C41.6934 3.05664 45.0911 3.85352 47.7695 5.44727C50.4479 7.04102 52.2077 9.0332 53.0488 11.4238C53.89 13.7923 54.3105 17.4889 54.3105 22.5137V27.627Z" fill="white"/>
<path d="M91.2656 35.6621C91.2656 41.0632 91.1328 44.8926 90.8672 47.1504C90.6237 49.3861 89.8268 51.4336 88.4766 53.293C87.1484 55.1523 85.3444 56.5801 83.0645 57.5762C80.7845 58.5723 78.1283 59.0703 75.0957 59.0703C72.2181 59.0703 69.6283 58.6055 67.3262 57.6758C65.0462 56.724 63.209 55.3073 61.8145 53.4258C60.4199 51.5443 59.5898 49.4967 59.3242 47.2832C59.0586 45.0697 58.9258 41.196 58.9258 35.6621V26.4648C58.9258 21.0638 59.0475 17.2454 59.291 15.0098C59.5566 12.752 60.3535 10.6934 61.6816 8.83398C63.0319 6.97461 64.847 5.54688 67.127 4.55078C69.4069 3.55469 72.0632 3.05664 75.0957 3.05664C77.9733 3.05664 80.5521 3.53255 82.832 4.48438C85.1341 5.41406 86.9824 6.81966 88.377 8.70117C89.7715 10.5827 90.6016 12.6302 90.8672 14.8438C91.1328 17.0573 91.2656 20.931 91.2656 26.4648V35.6621ZM77.2871 17.998C77.2871 15.4967 77.1432 13.903 76.8555 13.2168C76.5898 12.5085 76.0254 12.1543 75.1621 12.1543C74.4316 12.1543 73.8672 12.4421 73.4688 13.0176C73.0924 13.571 72.9043 15.2311 72.9043 17.998V43.0996C72.9043 46.2207 73.026 48.1465 73.2695 48.877C73.5352 49.6074 74.1328 49.9727 75.0625 49.9727C76.0143 49.9727 76.623 49.5521 76.8887 48.7109C77.1543 47.8698 77.2871 45.8665 77.2871 42.7012V17.998Z" fill="white"/>
<path d="M96.5117 4.18555H106.406C113.003 4.18555 117.463 4.4401 119.787 4.94922C122.133 5.45833 124.037 6.76432 125.498 8.86719C126.981 10.9479 127.723 14.2793 127.723 18.8613C127.723 23.0449 127.202 25.8561 126.162 27.2949C125.122 28.7337 123.074 29.597 120.02 29.8848C122.786 30.571 124.646 31.4896 125.598 32.6406C126.549 33.7917 127.136 34.8542 127.357 35.8281C127.601 36.7799 127.723 39.4251 127.723 43.7637V57.9414H114.74V40.0781C114.74 37.2005 114.508 35.4186 114.043 34.7324C113.6 34.0462 112.416 33.7031 110.49 33.7031V57.9414H96.5117V4.18555ZM110.49 13.3828V25.3359C112.062 25.3359 113.158 25.1257 113.777 24.7051C114.419 24.2624 114.74 22.8568 114.74 20.4883V17.5332C114.74 15.8288 114.43 14.7109 113.811 14.1797C113.213 13.6484 112.106 13.3828 110.49 13.3828Z" fill="white"/>
<path d="M133.168 4.18555H147.246C151.053 4.18555 153.975 4.48438 156.012 5.08203C158.07 5.67969 159.609 6.54297 160.627 7.67188C161.667 8.80078 162.365 10.1732 162.719 11.7891C163.095 13.3828 163.283 15.862 163.283 19.2266V23.9082C163.283 27.3392 162.929 29.8405 162.221 31.4121C161.512 32.9837 160.206 34.1901 158.303 35.0312C156.421 35.8724 153.953 36.293 150.898 36.293H147.146V57.9414H133.168V4.18555ZM147.146 13.3828V27.0625C147.545 27.0846 147.888 27.0957 148.176 27.0957C149.46 27.0957 150.345 26.7858 150.832 26.166C151.341 25.5241 151.596 24.207 151.596 22.2148V17.7988C151.596 15.9616 151.308 14.7663 150.732 14.2129C150.157 13.6595 148.962 13.3828 147.146 13.3828Z" fill="white"/>
<path d="M199.242 35.6621C199.242 41.0632 199.109 44.8926 198.844 47.1504C198.6 49.3861 197.803 51.4336 196.453 53.293C195.125 55.1523 193.321 56.5801 191.041 57.5762C188.761 58.5723 186.105 59.0703 183.072 59.0703C180.195 59.0703 177.605 58.6055 175.303 57.6758C173.023 56.724 171.186 55.3073 169.791 53.4258C168.396 51.5443 167.566 49.4967 167.301 47.2832C167.035 45.0697 166.902 41.196 166.902 35.6621V26.4648C166.902 21.0638 167.024 17.2454 167.268 15.0098C167.533 12.752 168.33 10.6934 169.658 8.83398C171.008 6.97461 172.824 5.54688 175.104 4.55078C177.383 3.55469 180.04 3.05664 183.072 3.05664C185.95 3.05664 188.529 3.53255 190.809 4.48438C193.111 5.41406 194.959 6.81966 196.354 8.70117C197.748 10.5827 198.578 12.6302 198.844 14.8438C199.109 17.0573 199.242 20.931 199.242 26.4648V35.6621ZM185.264 17.998C185.264 15.4967 185.12 13.903 184.832 13.2168C184.566 12.5085 184.002 12.1543 183.139 12.1543C182.408 12.1543 181.844 12.4421 181.445 13.0176C181.069 13.571 180.881 15.2311 180.881 17.998V43.0996C180.881 46.2207 181.003 48.1465 181.246 48.877C181.512 49.6074 182.109 49.9727 183.039 49.9727C183.991 49.9727 184.6 49.5521 184.865 48.7109C185.131 47.8698 185.264 45.8665 185.264 42.7012V17.998Z" fill="white"/>
<path d="M204.488 4.18555H214.383C220.979 4.18555 225.439 4.4401 227.764 4.94922C230.11 5.45833 232.014 6.76432 233.475 8.86719C234.958 10.9479 235.699 14.2793 235.699 18.8613C235.699 23.0449 235.179 25.8561 234.139 27.2949C233.098 28.7337 231.051 29.597 227.996 29.8848C230.763 30.571 232.622 31.4896 233.574 32.6406C234.526 33.7917 235.113 34.8542 235.334 35.8281C235.577 36.7799 235.699 39.4251 235.699 43.7637V57.9414H222.717V40.0781C222.717 37.2005 222.484 35.4186 222.02 34.7324C221.577 34.0462 220.393 33.7031 218.467 33.7031V57.9414H204.488V4.18555ZM218.467 13.3828V25.3359C220.038 25.3359 221.134 25.1257 221.754 24.7051C222.396 24.2624 222.717 22.8568 222.717 20.4883V17.5332C222.717 15.8288 222.407 14.7109 221.787 14.1797C221.189 13.6484 220.083 13.3828 218.467 13.3828Z" fill="white"/>
<path d="M265.283 4.18555L273.285 57.9414H258.975L258.277 48.2793H253.264L252.434 57.9414H237.957L245.062 4.18555H265.283ZM257.879 38.75C257.171 32.6628 256.462 25.1478 255.754 16.2051C254.337 26.4759 253.452 33.9909 253.098 38.75H257.879Z" fill="white"/>
<path d="M300.047 4.18555V14.9434H291.746V57.9414H277.768V14.9434H269.5V4.18555H300.047Z" fill="white"/>
<path d="M303.234 4.18555H326.543V14.9434H317.213V25.1367H325.945V35.3633H317.213V47.1836H327.473V57.9414H303.234V4.18555Z" fill="white"/>
<path d="M64.8027 78.1855V131.941H52.584V95.6504L47.7031 131.941H39.0371L33.8906 96.4805V131.941H21.6719V78.1855H39.7676C40.2988 81.4173 40.8633 85.2246 41.4609 89.6074L43.3867 103.287L46.5742 78.1855H64.8027Z" fill="white"/>
<path d="M94.5527 78.1855L102.555 131.941H88.2441L87.5469 122.279H82.5332L81.7031 131.941H67.2266L74.332 78.1855H94.5527ZM87.1484 112.75C86.4401 106.663 85.7318 99.1478 85.0234 90.2051C83.6068 100.476 82.7214 107.991 82.3672 112.75H87.1484Z" fill="white"/>
<path d="M129.316 78.1855V88.9434H121.016V131.941H107.037V88.9434H98.7695V78.1855H129.316Z" fill="white"/>
<path d="M165.143 101.627H151.164V92.2637C151.164 89.541 151.009 87.8477 150.699 87.1836C150.411 86.4974 149.758 86.1543 148.74 86.1543C147.589 86.1543 146.859 86.5638 146.549 87.3828C146.239 88.2018 146.084 89.9727 146.084 92.6953V117.664C146.084 120.276 146.239 121.98 146.549 122.777C146.859 123.574 147.556 123.973 148.641 123.973C149.681 123.973 150.356 123.574 150.666 122.777C150.998 121.98 151.164 120.11 151.164 117.166V110.426H165.143V112.518C165.143 118.074 164.744 122.014 163.947 124.338C163.173 126.662 161.435 128.699 158.734 130.447C156.056 132.196 152.747 133.07 148.807 133.07C144.712 133.07 141.336 132.329 138.68 130.846C136.023 129.363 134.264 127.315 133.4 124.703C132.537 122.069 132.105 118.118 132.105 112.85V97.1445C132.105 93.2708 132.238 90.3711 132.504 88.4453C132.77 86.4974 133.555 84.627 134.861 82.834C136.189 81.041 138.016 79.6354 140.34 78.6172C142.686 77.5768 145.376 77.0566 148.408 77.0566C152.525 77.0566 155.923 77.8535 158.602 79.4473C161.28 81.041 163.04 83.0332 163.881 85.4238C164.722 87.7923 165.143 91.4889 165.143 96.5137V101.627Z" fill="white"/>
<path d="M202.297 78.1855V131.941H188.318V109.363H184.135V131.941H170.156V78.1855H184.135V97.4102H188.318V78.1855H202.297Z" fill="white"/>
<path d="M21.6719 152.186H35.75C39.5573 152.186 42.4792 152.484 44.5156 153.082C46.5742 153.68 48.1126 154.543 49.1309 155.672C50.1712 156.801 50.8685 158.173 51.2227 159.789C51.599 161.383 51.7871 163.862 51.7871 167.227V171.908C51.7871 175.339 51.4329 177.84 50.7246 179.412C50.0163 180.984 48.7103 182.19 46.8066 183.031C44.9251 183.872 42.457 184.293 39.4023 184.293H35.6504V205.941H21.6719V152.186ZM35.6504 161.383V175.062C36.0488 175.085 36.3919 175.096 36.6797 175.096C37.9635 175.096 38.849 174.786 39.3359 174.166C39.8451 173.524 40.0996 172.207 40.0996 170.215V165.799C40.0996 163.962 39.8118 162.766 39.2363 162.213C38.6608 161.66 37.4655 161.383 35.6504 161.383Z" fill="white"/>
<path d="M55.8047 152.186H65.6992C72.2956 152.186 76.7559 152.44 79.0801 152.949C81.4264 153.458 83.3301 154.764 84.791 156.867C86.2741 158.948 87.0156 162.279 87.0156 166.861C87.0156 171.045 86.4954 173.856 85.4551 175.295C84.4147 176.734 82.3672 177.597 79.3125 177.885C82.0794 178.571 83.9388 179.49 84.8906 180.641C85.8424 181.792 86.429 182.854 86.6504 183.828C86.8939 184.78 87.0156 187.425 87.0156 191.764V205.941H74.0332V188.078C74.0332 185.201 73.8008 183.419 73.3359 182.732C72.8932 182.046 71.709 181.703 69.7832 181.703V205.941H55.8047V152.186ZM69.7832 161.383V173.336C71.3548 173.336 72.4505 173.126 73.0703 172.705C73.7122 172.262 74.0332 170.857 74.0332 168.488V165.533C74.0332 163.829 73.7233 162.711 73.1035 162.18C72.5059 161.648 71.3991 161.383 69.7832 161.383Z" fill="white"/>
<path d="M124.402 183.662C124.402 189.063 124.27 192.893 124.004 195.15C123.76 197.386 122.964 199.434 121.613 201.293C120.285 203.152 118.481 204.58 116.201 205.576C113.921 206.572 111.265 207.07 108.232 207.07C105.355 207.07 102.765 206.605 100.463 205.676C98.1829 204.724 96.3457 203.307 94.9512 201.426C93.5566 199.544 92.7266 197.497 92.4609 195.283C92.1953 193.07 92.0625 189.196 92.0625 183.662V174.465C92.0625 169.064 92.1842 165.245 92.4277 163.01C92.6934 160.752 93.4902 158.693 94.8184 156.834C96.1686 154.975 97.9837 153.547 100.264 152.551C102.544 151.555 105.2 151.057 108.232 151.057C111.11 151.057 113.689 151.533 115.969 152.484C118.271 153.414 120.119 154.82 121.514 156.701C122.908 158.583 123.738 160.63 124.004 162.844C124.27 165.057 124.402 168.931 124.402 174.465V183.662ZM110.424 165.998C110.424 163.497 110.28 161.903 109.992 161.217C109.727 160.508 109.162 160.154 108.299 160.154C107.568 160.154 107.004 160.442 106.605 161.018C106.229 161.571 106.041 163.231 106.041 165.998V191.1C106.041 194.221 106.163 196.146 106.406 196.877C106.672 197.607 107.27 197.973 108.199 197.973C109.151 197.973 109.76 197.552 110.025 196.711C110.291 195.87 110.424 193.867 110.424 190.701V165.998Z" fill="white"/>
<path d="M161.723 171.975H147.744V167.094C147.744 164.017 147.611 162.091 147.346 161.316C147.08 160.542 146.449 160.154 145.453 160.154C144.59 160.154 144.003 160.486 143.693 161.15C143.383 161.814 143.229 163.519 143.229 166.264V192.062C143.229 194.475 143.383 196.069 143.693 196.844C144.003 197.596 144.623 197.973 145.553 197.973C146.571 197.973 147.257 197.541 147.611 196.678C147.988 195.814 148.176 194.132 148.176 191.631V185.256H145.354V177.088H161.723V205.941H152.924L151.629 202.09C150.677 203.75 149.471 205.001 148.01 205.842C146.571 206.661 144.867 207.07 142.896 207.07C140.55 207.07 138.348 206.506 136.289 205.377C134.253 204.226 132.703 202.809 131.641 201.127C130.578 199.445 129.914 197.685 129.648 195.848C129.383 193.988 129.25 191.21 129.25 187.514V171.543C129.25 166.408 129.527 162.678 130.08 160.354C130.633 158.029 132.216 155.904 134.828 153.979C137.462 152.031 140.86 151.057 145.021 151.057C149.117 151.057 152.514 151.898 155.215 153.58C157.915 155.262 159.675 157.266 160.494 159.59C161.313 161.892 161.723 165.245 161.723 169.65V171.975Z" fill="white"/>
<path d="M167.168 152.186H177.062C183.659 152.186 188.119 152.44 190.443 152.949C192.79 153.458 194.693 154.764 196.154 156.867C197.637 158.948 198.379 162.279 198.379 166.861C198.379 171.045 197.859 173.856 196.818 175.295C195.778 176.734 193.73 177.597 190.676 177.885C193.443 178.571 195.302 179.49 196.254 180.641C197.206 181.792 197.792 182.854 198.014 183.828C198.257 184.78 198.379 187.425 198.379 191.764V205.941H185.396V188.078C185.396 185.201 185.164 183.419 184.699 182.732C184.257 182.046 183.072 181.703 181.146 181.703V205.941H167.168V152.186ZM181.146 161.383V173.336C182.718 173.336 183.814 173.126 184.434 172.705C185.076 172.262 185.396 170.857 185.396 168.488V165.533C185.396 163.829 185.087 162.711 184.467 162.18C183.869 161.648 182.762 161.383 181.146 161.383Z" fill="white"/>
<path d="M227.963 152.186L235.965 205.941H221.654L220.957 196.279H215.943L215.113 205.941H200.637L207.742 152.186H227.963ZM220.559 186.75C219.85 180.663 219.142 173.148 218.434 164.205C217.017 174.476 216.132 181.991 215.777 186.75H220.559Z" fill="white"/>
<path d="M281.486 152.186V205.941H269.268V169.65L264.387 205.941H255.721L250.574 170.48V205.941H238.355V152.186H256.451C256.982 155.417 257.547 159.225 258.145 163.607L260.07 177.287L263.258 152.186H281.486Z" fill="white"/>
<path fill-rule="evenodd" clip-rule="evenodd" d="M3.26758 0C4.92443 0 6.26758 1.34315 6.26758 3V60C6.26758 61.6569 4.92443 63 3.26758 63C1.61072 63 0.267578 61.6569 0.267578 60V3C0.267578 1.34315 1.61072 0 3.26758 0Z" fill="#782B2E"/>
<path fill-rule="evenodd" clip-rule="evenodd" d="M3.26758 73C4.92443 73 6.26758 74.3431 6.26758 76V133C6.26758 134.657 4.92443 136 3.26758 136C1.61072 136 0.267578 134.657 0.267578 133V76C0.267578 74.3431 1.61072 73 3.26758 73Z" fill="#782B2E"/>
<path fill-rule="evenodd" clip-rule="evenodd" d="M3.26758 146C4.92443 146 6.26758 147.343 6.26758 149V206C6.26758 207.657 4.92443 209 3.26758 209C1.61072 209 0.267578 207.657 0.267578 206V149C0.267578 147.343 1.61072 146 3.26758 146Z" fill="#782B2E"/>
<path d="M292.768 201.731V156.553C292.768 153.136 296.776 151.292 299.371 153.516L325.724 176.105C327.587 177.702 327.587 180.583 325.724 182.179L299.371 204.768C296.776 206.992 292.768 205.148 292.768 201.731Z" fill="#782B2E"/>
</svg>
